<svg width="16" height="15" viewBox="0 0 16 15" fill="none" xmlns="http://www.w3.org/2000/svg">
<path d="M5.33333 6.16642L7.99999 8.83309L10.6667 6.16642M2.66666 1.49976H13.3333C13.6869 1.49976 14.0261 1.64023 14.2761 1.89028C14.5262 2.14033 14.6667 2.47947 14.6667 2.83309V6.83309C14.6667 8.6012 13.9643 10.2969 12.714 11.5471C11.4638 12.7974 9.7681 13.4998 7.99999 13.4998C7.12452 13.4998 6.25761 13.3273 5.44877 12.9923C4.63993 12.6573 3.90501 12.1662 3.28595 11.5471C2.03571 10.2969 1.33333 8.6012 1.33333 6.83309V2.83309C1.33333 2.47947 1.4738 2.14033 1.72385 1.89028C1.9739 1.64023 2.31304 1.49976 2.66666 1.49976Z" stroke="white" stroke-width="1.5" stroke-linecap="round" stroke-linejoin="round"/>
</svg>
