<svg width="16" height="16" viewBox="0 0 16 16" fill="none" xmlns="http://www.w3.org/2000/svg">
<g clip-path="url(#clip0_6_45)">
<path d="M12.8574 10.6404C12.8181 10.4241 12.8446 10.2011 12.9334 10C13.0179 9.80282 13.1582 9.63465 13.337 9.5162C13.5159 9.39775 13.7255 9.33419 13.94 9.33333H14C14.3536 9.33333 14.6928 9.19285 14.9428 8.94281C15.1929 8.69276 15.3334 8.35362 15.3334 8C15.3334 7.64638 15.1929 7.30724 14.9428 7.05719C14.6928 6.80714 14.3536 6.66666 14 6.66666H13.8867C13.6722 6.66581 13.4626 6.60224 13.2837 6.48379C13.1049 6.36534 12.9645 6.19718 12.88 6V5.94666C12.7913 5.74559 12.7648 5.52254 12.804 5.30627C12.8432 5.09001 12.9463 4.89045 13.1 4.73333L13.14 4.69333C13.264 4.5695 13.3623 4.42245 13.4294 4.26058C13.4965 4.09872 13.5311 3.92522 13.5311 3.75C13.5311 3.57478 13.4965 3.40127 13.4294 3.23941C13.3623 3.07755 13.264 2.9305 13.14 2.80666C13.0162 2.6827 12.8691 2.58435 12.7073 2.51725C12.5454 2.45015 12.3719 2.41562 12.1967 2.41562C12.0215 2.41562 11.848 2.45015 11.6861 2.51725C11.5242 2.58435 11.3772 2.6827 11.2534 2.80666L11.2134 2.84666C11.0562 3.00036 10.8567 3.10345 10.6404 3.14267C10.4241 3.18188 10.2011 3.15541 10 3.06666C9.80284 2.98216 9.63468 2.84183 9.51623 2.66297C9.39777 2.48411 9.33421 2.27452 9.33335 2.06V2C9.33335 1.64638 9.19288 1.30724 8.94283 1.05719C8.69278 0.80714 8.35364 0.666664 8.00002 0.666664C7.6464 0.666664 7.30726 0.80714 7.05721 1.05719C6.80716 1.30724 6.66669 1.64638 6.66669 2V2.11333C6.66583 2.32786 6.60227 2.53745 6.48382 2.71631C6.36537 2.89517 6.1972 3.03549 6.00002 3.12H5.94669C5.74561 3.20874 5.52256 3.23521 5.30629 3.196C5.09003 3.15679 4.89047 3.05369 4.73335 2.9L4.69335 2.86C4.56952 2.73603 4.42247 2.63768 4.26061 2.57058C4.09874 2.50349 3.92524 2.46895 3.75002 2.46895C3.5748 2.46895 3.4013 2.50349 3.23943 2.57058C3.07757 2.63768 2.93052 2.73603 2.80669 2.86C2.68272 2.98383 2.58437 3.13088 2.51727 3.29274C2.45018 3.45461 2.41564 3.62811 2.41564 3.80333C2.41564 3.97855 2.45018 4.15205 2.51727 4.31392C2.58437 4.47578 2.68272 4.62283 2.80669 4.74666L2.84669 4.78666C3.00038 4.94378 3.10348 5.14334 3.14269 5.35961C3.1819 5.57587 3.15543 5.79892 3.06669 6C2.9905 6.20715 2.85375 6.3866 2.67422 6.515C2.49469 6.64341 2.28068 6.71484 2.06002 6.72H2.00002C1.6464 6.72 1.30726 6.86047 1.05721 7.11052C0.807163 7.36057 0.666687 7.69971 0.666687 8.05333C0.666687 8.40695 0.807163 8.74609 1.05721 8.99614C1.30726 9.24619 1.6464 9.38666 2.00002 9.38666H2.11335C2.32788 9.38752 2.53747 9.45109 2.71633 9.56954C2.89519 9.68799 3.03551 9.85615 3.12002 10.0533C3.20876 10.2544 3.23524 10.4775 3.19602 10.6937C3.15681 10.91 3.05371 11.1095 2.90002 11.2667L2.86002 11.3067C2.73605 11.4305 2.63771 11.5775 2.57061 11.7394C2.50351 11.9013 2.46897 12.0748 2.46897 12.25C2.46897 12.4252 2.50351 12.5987 2.57061 12.7606C2.63771 12.9224 2.73605 13.0695 2.86002 13.1933C2.98385 13.3173 3.1309 13.4156 3.29277 13.4827C3.45463 13.5498 3.62813 13.5844 3.80335 13.5844C3.97857 13.5844 4.15208 13.5498 4.31394 13.4827C4.4758 13.4156 4.62286 13.3173 4.74669 13.1933L4.78669 13.1533C4.94381 12.9996 5.14336 12.8965 5.35963 12.8573C5.57589 12.8181 5.79894 12.8446 6.00002 12.9333C6.20718 13.0095 6.38662 13.1463 6.51503 13.3258C6.64343 13.5053 6.71486 13.7193 6.72002 13.94V14C6.72002 14.3536 6.8605 14.6928 7.11055 14.9428C7.36059 15.1929 7.69973 15.3333 8.05335 15.3333C8.40698 15.3333 8.74611 15.1929 8.99616 14.9428C9.24621 14.6928 9.38669 14.3536 9.38669 14V13.8867C9.38754 13.6721 9.45111 13.4625 9.56956 13.2837C9.68801 13.1048 9.85617 12.9645 10.0534 12.88C10.2544 12.7913 10.4775 12.7648 10.6937 12.804C10.91 12.8432 11.1096 12.9463 11.2667 13.1L11.3067 13.14C11.4305 13.264 11.5776 13.3623 11.7394 13.4294C11.9013 13.4965 12.0748 13.531 12.25 13.531C12.4252 13.531 12.5987 13.4965 12.7606 13.4294C12.9227 13.3622 13.0699 13.2624 13.1934 13.1388C13.3164 13.0156 13.4158 12.8689 13.4828 12.7073C13.5499 12.5454 13.5844 12.3719 13.5844 12.1967C13.5844 12.0214 13.5499 11.8479 13.4828 11.6861C13.4157 11.5242 13.3173 11.3772 13.1934 11.2533L13.1534 11.2133C12.9997 11.0562 12.8966 10.8567 12.8574 10.6404Z" stroke="#787E8C" stroke-width="1.5" stroke-linecap="round" stroke-linejoin="round"/>
</g>
<defs>
<clipPath id="clip0_6_45">
<rect width="16" height="16" fill="white"/>
</clipPath>
</defs>
</svg>
